<?xml version="1.0" encoding="UTF-8"?>
<svg version="1.1" xmlns="http://www.w3.org/2000/svg" width="512" height="512">
<path d="M0 0 C4.42608226 3.25407058 8.23948458 7.00901951 12 11 C12.74894531 11.79148437 13.49789063 12.58296875 14.26953125 13.3984375 C27.80076089 28.97358137 31.19248368 48.33333239 30.20703125 68.40136719 C28.83288001 85.64955799 20.04999062 100.96919726 8 113 C6.515 113.495 6.515 113.495 5 114 C6.89903606 117.07343993 8.92800239 120.04055463 11 123 C11.4345752 123.62116699 11.86915039 124.24233398 12.31689453 124.88232422 C13.78484829 126.94583924 15.29321703 128.97404821 16.8125 131 C17.52164551 132.0065564 17.52164551 132.0065564 18.24511719 133.03344727 C21.08939114 136.75740279 21.08939114 136.75740279 25.28662109 138.55078125 C27.6705922 138.78374512 27.6705922 138.78374512 29.95581055 138.734375 C32 139 32 139 33.73291016 140.16333008 C38.33660836 146.83647489 35.91741258 161.30819597 35 169 C33.47077307 175.03848582 30.56893848 179.95033172 27 185 C26.43796875 185.82242188 25.8759375 186.64484375 25.296875 187.4921875 C19.58503311 194.83994527 10.6863163 199.92359631 2 203 C1.01 203 0.02 203 -1 203 C-1 227.42 -1 251.84 -1 277 C5.93 277 12.86 277 20 277 C27.72017179 282.14678119 27.72017179 282.14678119 30 287 C30.59523719 291.20374169 30.59463255 295.37082561 30.59350586 299.61132812 C30.60866241 300.88028427 30.62381897 302.14924042 30.63943481 303.45664978 C30.68002183 306.92562497 30.69584022 310.39430453 30.70629954 313.86348534 C30.72063389 317.50027574 30.75505351 321.1368846 30.78651428 324.77355957 C30.83616137 330.8797743 30.86978962 336.98591915 30.89379883 343.09228516 C30.9217139 350.14416679 30.97451949 357.19552709 31.04078192 364.24714518 C31.10407889 371.04087293 31.15011831 377.83461232 31.18820381 384.62852478 C31.20466286 387.51520457 31.22705541 390.40174737 31.25425529 393.28834534 C31.2913012 397.32183618 31.30306836 401.35502143 31.31225586 405.38867188 C31.32610825 406.5826207 31.33996063 407.77656952 31.35423279 409.00669861 C31.3403342 419.28118551 31.3403342 419.28118551 28 424 C23.49289005 427.47423058 20.0237935 429.11794881 14.3651886 429.14717102 C13.41341232 429.15432632 12.46163605 429.16148163 11.48101807 429.16885376 C9.91707306 429.17288712 9.91707306 429.17288712 8.3215332 429.17700195 C7.22203842 429.18357315 6.12254364 429.19014435 4.98973083 429.19691467 C1.34341364 429.21665898 -2.30286234 429.22831329 -5.94921875 429.23828125 C-7.19419443 429.24235678 -8.43917011 429.2464323 -9.72187233 429.25063133 C-15.63254671 429.26934563 -21.54320799 429.28390958 -27.45390481 429.2922433 C-34.26445266 429.30200551 -41.07467461 429.3282995 -47.8851077 429.36874419 C-53.79308128 429.40261843 -59.70097563 429.41439459 -65.60904884 429.41844749 C-68.1172284 429.42331673 -70.6254044 429.43494022 -73.13352013 429.45348549 C-76.64746333 429.47785135 -80.1605586 429.47691591 -83.67456055 429.4699707 C-84.7070694 429.48278076 -85.73957825 429.49559082 -86.80337524 429.50878906 C-92.96009575 429.46452751 -97.94210812 428.7264705 -103 425 C-108.7526037 418.33721958 -107.3600675 409.24154491 -107 401 C-109.60760846 401.0330077 -112.20662846 401.1001148 -114.8125 401.1875 C-115.55048828 401.19330078 -116.28847656 401.19910156 -117.04882812 401.20507812 C-119.49564662 401.25316515 -119.49564662 401.25316515 -123 402 C-124.75238697 404.37893067 -124.75238697 404.37893067 -126 407 C-130.00900246 409.3450207 -133.74589473 409.21035711 -138.3125 409.125 C-139.56675781 409.10695313 -140.82101562 409.08890625 -142.11328125 409.0703125 C-143.06589844 409.04710937 -144.01851563 409.02390625 -145 409 C-144.83701416 409.70664795 -144.67402832 410.4132959 -144.50610352 411.14135742 C-143.98646586 414.07644539 -143.88641651 416.75988693 -143.90234375 419.73828125 C-143.90556641 420.80498047 -143.90878906 421.87167969 -143.91210938 422.97070312 C-143.92048828 424.07349609 -143.92886719 425.17628906 -143.9375 426.3125 C-143.94201172 427.43462891 -143.94652344 428.55675781 -143.95117188 429.71289062 C-143.96292687 432.4753151 -143.97935923 435.23762998 -144 438 C-143.17757813 437.95359375 -142.35515625 437.9071875 -141.5078125 437.859375 C-133.14489619 437.58898048 -125.71252364 437.95369592 -119.12109375 443.61328125 C-113.50511404 449.71643029 -112.46963314 455.88495388 -112.62109375 464.0234375 C-113.4017745 470.15620789 -116.35890399 473.71994511 -121.125 477.4375 C-125.67564611 479.91067723 -128.94723313 480.12872047 -134.07795715 480.14044189 C-134.80315935 480.14341302 -135.52836155 480.14638414 -136.27553958 480.1494453 C-138.71210636 480.15813549 -141.14862402 480.15964081 -143.58520508 480.16113281 C-145.32958583 480.16576076 -147.07396556 480.17078538 -148.81834412 480.17617798 C-153.56221931 480.18930618 -158.30608034 480.19574775 -163.04997087 480.20018864 C-166.01311512 480.20311866 -168.9762555 480.20722333 -171.93939781 480.21169281 C-181.20852828 480.22536878 -190.47764989 480.23503498 -199.74678975 480.2388947 C-210.45012125 480.24337599 -221.15332508 480.26092677 -231.85661775 480.2898953 C-240.12761917 480.31150451 -248.39858466 480.32159857 -256.66961402 480.32293582 C-261.6106063 480.32398438 -266.55147859 480.32990313 -271.49244118 480.34775543 C-276.14061703 480.36422298 -280.78858251 480.36639802 -285.43677711 480.35761642 C-287.14196333 480.35684535 -288.84716079 480.36119809 -290.55231857 480.37107468 C-292.88216038 480.38377717 -295.21125519 480.37792705 -297.54109192 480.36749268 C-299.49590091 480.36969252 -299.49590091 480.36969252 -301.490201 480.3719368 C-307.84424145 479.69859298 -311.93957561 476.8083973 -316 472 C-319.67731056 466.5259579 -320.97010641 461.55413355 -320 455 C-317.94062533 448.60509969 -314.79040046 443.6514615 -308.9375 440.1875 C-304.17630564 438.26276185 -300.41469338 437.88585307 -295.25 437.9375 C-293.49429688 437.95103516 -293.49429688 437.95103516 -291.703125 437.96484375 C-290.81109375 437.97644531 -289.9190625 437.98804688 -289 438 C-289.00523682 437.26362305 -289.01047363 436.52724609 -289.01586914 435.76855469 C-289.03666867 432.42904515 -289.04966968 429.08954926 -289.0625 425.75 C-289.07087891 424.59113281 -289.07925781 423.43226563 -289.08789062 422.23828125 C-289.09111328 421.12324219 -289.09433594 420.00820313 -289.09765625 418.859375 C-289.10289307 417.83295898 -289.10812988 416.80654297 -289.11352539 415.74902344 C-289 413 -289 413 -288 409 C-322.98 409 -357.96 409 -394 409 C-394.66 411.97 -395.32 414.94 -396 418 C-396.74961233 420.3149225 -397.54826755 422.61461987 -398.3984375 424.89453125 C-398.62960266 425.51687149 -398.86076782 426.13921173 -399.09893799 426.78041077 C-399.85032222 428.79393783 -400.61174236 430.8034463 -401.375 432.8125 C-401.63545105 433.50321594 -401.8959021 434.19393188 -402.16424561 434.90557861 C-406.09747763 445.32246272 -410.24896633 455.63644841 -414.625 465.875 C-415.13337402 467.06843018 -415.64174805 468.26186035 -416.16552734 469.49145508 C-419.74114096 477.74114096 -419.74114096 477.74114096 -422 480 C-427.63994911 480.63676845 -427.63994911 480.63676845 -430 480 C-433.05117689 476.62776643 -434.93214512 473.33797761 -436.6640625 469.15234375 C-437.38033813 467.42902832 -437.38033813 467.42902832 -438.11108398 465.67089844 C-438.61650627 464.42675034 -439.12112498 463.18227554 -439.625 461.9375 C-439.8846756 461.30283813 -440.1443512 460.66817627 -440.41189575 460.01428223 C-466.84926915 395.35975813 -466.84926915 395.35975813 -460.375 376.125 C-456.67539829 367.34650257 -451.48033919 361.45603277 -443 357 C-441.67225666 356.6450542 -440.33934667 356.30828458 -439 356 C-438.92035626 335.89399597 -438.89205587 315.78854441 -438.92484188 295.68240166 C-438.93886873 286.34664807 -438.93610832 277.01146352 -438.89379883 267.67578125 C-438.85696319 259.53851232 -438.85165498 251.40193729 -438.88417059 243.26463902 C-438.90028772 238.95587345 -438.900641 234.64840935 -438.86323357 230.33974838 C-438.82850874 226.28268321 -438.83599064 222.22786892 -438.87562943 218.17086983 C-438.88276373 216.68337926 -438.87457168 215.19572269 -438.84977531 213.70842171 C-438.46684943 205.65037734 -438.46684943 205.65037734 -441.99043465 198.82915115 C-444.26903531 197.30505351 -446.51803768 196.15029195 -449 195 C-456.39236642 188.35035172 -461.60987019 179.93085785 -462.17700195 169.85546875 C-462.23132814 166.60368917 -462.27645353 163.35273968 -462.29516602 160.10058594 C-462.30672285 158.70009284 -462.32723318 157.29964504 -462.35668945 155.89941406 C-462.39934329 153.87014009 -462.41552549 151.84216635 -462.42578125 149.8125 C-462.44765503 147.99685547 -462.44765503 147.99685547 -462.4699707 146.14453125 C-461.89597466 142.30397591 -461.07517562 141.30694119 -458 139 C-457.05761475 138.55567627 -456.11522949 138.11135254 -455.14428711 137.65356445 C-448.10758252 133.95299762 -443.03670439 127.28098235 -440 120 C-438.05889531 110.93766769 -438.67540395 101.51869985 -438.9375 92.3125 C-438.99392173 88.63055819 -439.03295098 84.94917733 -439.05799866 81.26689148 C-439.07851423 78.99365356 -439.11914247 76.72046355 -439.18455505 74.44807434 C-439.43662515 60.49213058 -436.17746712 47.93615911 -426.671875 37.42578125 C-415.7500401 27.03629994 -404.67229036 23.67025992 -389.94351196 23.80227661 C-388.12484306 23.80628819 -388.12484306 23.80628819 -386.26943338 23.81038082 C-383.61488919 23.81762976 -380.96065861 23.82854719 -378.30618858 23.84571266 C-373.98646592 23.87358017 -369.66676136 23.88747227 -365.3469696 23.89955139 C-359.88733002 23.91577547 -354.42772334 23.93556576 -348.9681121 23.95950441 C-338.23951213 24.00628252 -327.51100993 24.0258649 -316.78231812 24.03536987 C-315.09187749 24.03699273 -313.40143688 24.03862455 -311.71099627 24.0402652 C-309.14937729 24.04270727 -306.5877583 24.04511149 -304.02613921 24.04743484 C-294.37549553 24.05618795 -284.72485605 24.06684969 -275.07421875 24.08105469 C-274.19232547 24.0823428 -273.31043218 24.08363091 -272.40181486 24.08495806 C-258.10744568 24.10698743 -243.81342374 24.1655489 -229.51922043 24.23575713 C-214.83436493 24.30685366 -200.1499124 24.33217637 -185.46489179 24.31675422 C-176.41142918 24.30881946 -167.35958362 24.33744489 -158.30642782 24.41319518 C-152.10150829 24.46183301 -145.89752722 24.46652219 -139.69249202 24.43682034 C-136.11365453 24.42102866 -132.53762977 24.42462909 -128.95913887 24.48092461 C-114.3080339 25.56739371 -114.3080339 25.56739371 -101.38340378 20.36291122 C-98.96278472 17.52931728 -97.49655523 14.4063237 -96 11 C-73.51749506 -17.61610039 -28.65289558 -18.43313739 0 0 Z M-421 81 C-421 86.28 -421 91.56 -421 97 C-417.7691952 93.7691952 -414.95399125 90.86252908 -412.1875 87.3125 C-411.28064453 86.16201172 -411.28064453 86.16201172 -410.35546875 84.98828125 C-408.81223785 83.12563907 -408.81223785 83.12563907 -409 81 C-412.96 81 -416.92 81 -421 81 Z M-272 409 C-272.33 418.57 -272.66 428.14 -273 438 C-235.71 438 -198.42 438 -160 438 C-160.33 428.43 -160.66 418.86 -161 409 C-197.63 409 -234.26 409 -272 409 Z " fill="#162081" transform="translate(472,22)"/>
<path d="M0 0 C0.47308594 0.37511719 0.94617188 0.75023437 1.43359375 1.13671875 C13.06098035 10.13491072 23.22311784 14.460888 38 13 C45.53734857 11.38616381 51.15460639 7.88201025 57 3 C58.32855502 1.99366043 59.66068587 0.99197552 61 0 C61.556875 0.53109375 62.11375 1.0621875 62.6875 1.609375 C72.86842662 11.03361113 81.24355966 13.55151771 94.98828125 13.265625 C105.4764838 12.76630334 111.78489371 7.18440371 119 0 C119.4846875 0.37511719 119.969375 0.75023437 120.46875 1.13671875 C132.18873974 10.08448015 141.82306246 14.80598525 157 13 C165.22784576 10.87912836 171.66842107 6.54812598 178 1 C181.21571022 2.48247192 183.90801491 4.33316391 186.75 6.4375 C196.98865698 13.56004399 206.67334513 14.37484554 218.94140625 12.56640625 C225.4552239 10.92520963 229.9698805 7.30593887 235 3 C236.32614076 1.99048108 237.65733283 0.98743236 239 0 C239.81791016 0.79664063 239.81791016 0.79664063 240.65234375 1.609375 C250.29408788 10.64129941 258.99734397 13.53302042 272.1015625 13.27734375 C282.69894518 12.52342174 290.73019553 7.46928081 298 0 C298.69222656 0.67095703 298.69222656 0.67095703 299.3984375 1.35546875 C309.62482787 10.83407959 319.45563896 13.6428187 333.09130859 13.13183594 C342.85958526 12.45712765 350.75320949 6.07795333 358 0 C358.8353125 0.79664063 358.8353125 0.79664063 359.6875 1.609375 C370.95391536 12.03842165 378.01242344 12.85803025 394 14 C394 38.42 394 62.84 394 88 C400.93 88 407.86 88 415 88 C422.72017179 93.14678119 422.72017179 93.14678119 425 98 C425.59523719 102.20374169 425.59463255 106.37082561 425.59350586 110.61132812 C425.60866241 111.88028427 425.62381897 113.14924042 425.63943481 114.45664978 C425.68002183 117.92562497 425.69584022 121.39430453 425.70629954 124.86348534 C425.72063389 128.50027574 425.75505351 132.1368846 425.78651428 135.77355957 C425.83616137 141.8797743 425.86978962 147.98591915 425.89379883 154.09228516 C425.9217139 161.14416679 425.97451949 168.19552709 426.04078192 175.24714518 C426.10407889 182.04087293 426.15011831 188.83461232 426.18820381 195.62852478 C426.20466286 198.51520457 426.22705541 201.40174737 426.25425529 204.28834534 C426.2913012 208.32183618 426.30306836 212.35502143 426.31225586 216.38867188 C426.32610825 217.5826207 426.33996063 218.77656952 426.35423279 220.00669861 C426.3403342 230.28118551 426.3403342 230.28118551 423 235 C418.49289005 238.47423058 415.0237935 240.11794881 409.3651886 240.14717102 C408.41341232 240.15432632 407.46163605 240.16148163 406.48101807 240.16885376 C404.91707306 240.17288712 404.91707306 240.17288712 403.3215332 240.17700195 C402.22203842 240.18357315 401.12254364 240.19014435 399.98973083 240.19691467 C396.34341364 240.21665898 392.69713766 240.22831329 389.05078125 240.23828125 C387.80580557 240.24235678 386.56082989 240.2464323 385.27812767 240.25063133 C379.36745329 240.26934563 373.45679201 240.28390958 367.54609519 240.2922433 C360.73554734 240.30200551 353.92532539 240.3282995 347.1148923 240.36874419 C341.20691872 240.40261843 335.29902437 240.41439459 329.39095116 240.41844749 C326.8827716 240.42331673 324.3745956 240.43494022 321.86647987 240.45348549 C318.35253667 240.47785135 314.8394414 240.47691591 311.32543945 240.4699707 C310.2929306 240.48278076 309.26042175 240.49559082 308.19662476 240.50878906 C302.03990425 240.46452751 297.05789188 239.7264705 292 236 C286.19645144 229.27821423 287.72340825 220.29775241 288 212 C282.39 212 276.78 212 271 212 C270.34 210.02 269.68 208.04 269 206 C265.8560309 203.9040206 265.13620451 203.74859339 261.55472279 203.73828697 C260.6395834 203.73082148 259.724444 203.72335599 258.78157312 203.71566427 C257.77477414 203.717599 256.76797516 203.71953374 255.73066711 203.7215271 C254.12811145 203.7128385 254.12811145 203.7128385 252.49318093 203.70397437 C248.8955703 203.68690223 245.29808739 203.68409165 241.70043945 203.68115234 C239.12859785 203.67185915 236.55675927 203.6616914 233.98492432 203.65071106 C228.43884641 203.62841816 222.89278701 203.61341711 217.34667397 203.60334396 C209.32789541 203.58876932 201.30918134 203.56323596 193.29044058 203.53501268 C180.28112784 203.48952255 167.27180582 203.45291694 154.26245117 203.421875 C141.62376273 203.39169854 128.98509698 203.35735245 116.34643555 203.31738281 C115.56761787 203.31492126 114.7888002 203.31245972 113.98638199 203.30992357 C110.07935107 203.29754915 106.17232042 203.28509258 102.2652899 203.27259517 C69.84355737 203.16899412 37.42179998 203.07980186 5 203 C4.82041748 201.91605957 4.64083496 200.83211914 4.45581055 199.71533203 C4.20414914 198.27106538 3.95192172 196.82689727 3.69921875 195.3828125 C3.58284058 194.6710083 3.4664624 193.9592041 3.34655762 193.22583008 C1.84067725 184.77253065 -2.12161531 178.0208533 -8.8125 172.5625 C-14.36392849 168.81826168 -20.54129843 166.61467539 -27 165 C-27 162.03 -27 159.06 -27 156 C-26.06970528 155.99910437 -26.06970528 155.99910437 -25.12061673 155.99819064 C11.62173011 155.96231156 48.36399047 155.90569552 85.10626082 155.82207905 C89.51607133 155.81206136 93.92588222 155.80221727 98.33569336 155.79248047 C99.21362255 155.7905391 100.09155174 155.78859772 100.99608485 155.78659752 C115.21906144 155.75556028 129.44202189 155.73859206 143.66502597 155.72680578 C158.25468635 155.71440314 172.84426188 155.68692184 187.43386871 155.64538693 C196.4394399 155.62022607 205.44487043 155.6068846 214.45047728 155.60857043 C220.6225219 155.60860014 226.79442302 155.59400865 232.96641173 155.56783572 C236.5295647 155.55316021 240.09242338 155.54501183 243.6556015 155.55419731 C247.51637565 155.56398176 251.37663063 155.54301858 255.23735046 155.51898193 C256.93141235 155.53062256 256.93141235 155.53062256 258.65969771 155.54249835 C264.70248838 155.47999946 264.70248838 155.47999946 270.2039156 153.19021988 C272.314574 151.0038822 272.314574 151.0038822 272.5 147.4375 C272.28658745 144.08337767 272.28658745 144.08337767 270.625 142.125 C267.63876056 140.05760346 265.76144322 139.87205536 262.16239738 139.8613348 C261.13429699 139.85586036 260.10619659 139.85038591 259.04694164 139.84474558 C257.90882852 139.84376747 256.77071541 139.84278936 255.59811401 139.84178162 C254.39584077 139.83684364 253.19356753 139.83190566 251.95486176 139.82681805 C248.60730867 139.81407439 245.2597975 139.80580888 241.91222978 139.79939139 C238.30622041 139.79140221 234.70023235 139.77769935 231.09423828 139.76467896 C224.84314514 139.74289513 218.59204987 139.72475763 212.34093857 139.70907402 C203.30280363 139.68639272 194.26469227 139.6582475 185.2265773 139.62875474 C170.5639851 139.58105746 155.90138328 139.53779908 141.23876953 139.49731445 C126.99266816 139.45797039 112.74657535 139.41654678 98.50048828 139.37231445 C97.1840114 139.36822804 97.1840114 139.36822804 95.84093903 139.36405908 C91.43816324 139.35037978 87.03538759 139.33665948 82.63261199 139.32291877 C46.08842476 139.20892044 9.5442204 139.10293308 -27 139 C-27 97.75 -27 56.5 -27 14 C-23.04 13.01 -19.08 12.02 -15 11 C-9.12984803 7.89624149 -4.37958914 4.96353436 0 0 Z " fill="#D5E6FD" transform="translate(77,211)"/>
<path d="M0 0 C8.04401072 4.66683774 13.39189063 10.7923634 16.71484375 19.45898438 C18.34618003 25.90722653 17.90541679 32.58521897 17.75 39.1875 C17.72989241 40.68356968 17.71164921 42.17966564 17.6953125 43.67578125 C17.65168115 47.30524238 17.58289303 50.93369819 17.5 54.5625 C18.28648926 54.54155273 19.07297852 54.52060547 19.88330078 54.49902344 C23.46373598 54.41562247 27.04396642 54.36376224 30.625 54.3125 C32.48125 54.26222656 32.48125 54.26222656 34.375 54.2109375 C43.50836269 54.1127293 43.50836269 54.1127293 48.1171875 56.203125 C53.89027436 61.9194274 54.96061224 65.47364568 55.09446716 73.55580139 C55.09414993 74.74975021 55.0938327 75.94369904 55.09350586 77.17382812 C55.10866241 78.44278427 55.12381897 79.71174042 55.13943481 81.01914978 C55.18002183 84.48812497 55.19584022 87.95680453 55.20629954 91.42598534 C55.22063389 95.06277574 55.25505351 98.6993846 55.28651428 102.33605957 C55.33616137 108.4422743 55.36978962 114.54841915 55.39379883 120.65478516 C55.4217139 127.70666679 55.47451949 134.75802709 55.54078192 141.80964518 C55.60407889 148.60337293 55.65011831 155.39711232 55.68820381 162.19102478 C55.70466286 165.07770457 55.72705541 167.96424737 55.75425529 170.85084534 C55.7913012 174.88433618 55.80306836 178.91752143 55.81225586 182.95117188 C55.82610825 184.1451207 55.83996063 185.33906952 55.85423279 186.56919861 C55.8403342 196.84368551 55.8403342 196.84368551 52.5 201.5625 C47.99289005 205.03673058 44.5237935 206.68044881 38.8651886 206.70967102 C37.91341232 206.71682632 36.96163605 206.72398163 35.98101807 206.73135376 C34.41707306 206.73538712 34.41707306 206.73538712 32.8215332 206.73950195 C31.72203842 206.74607315 30.62254364 206.75264435 29.48973083 206.75941467 C25.84341364 206.77915898 22.19713766 206.79081329 18.55078125 206.80078125 C17.30580557 206.80485678 16.06082989 206.8089323 14.77812767 206.81313133 C8.86745329 206.83184563 2.95679201 206.84640958 -2.95390481 206.8547433 C-9.76445266 206.86450551 -16.57467461 206.8907995 -23.3851077 206.93124419 C-29.29308128 206.96511843 -35.20097563 206.97689459 -41.10904884 206.98094749 C-43.6172284 206.98581673 -46.1254044 206.99744022 -48.63352013 207.01598549 C-52.14746333 207.04035135 -55.6605586 207.03941591 -59.17456055 207.0324707 C-60.2070694 207.04528076 -61.23957825 207.05809082 -62.30337524 207.07128906 C-68.40902078 207.0273947 -73.64474875 206.55848267 -78.5 202.5625 C-83.58242035 196.60637908 -83.0356931 189.23301669 -82.92578125 181.81591797 C-82.92303696 180.55642334 -82.92029266 179.29692871 -82.91746521 177.99926758 C-82.90900843 174.56525247 -82.87511738 171.13193433 -82.83537292 167.69815588 C-82.79692288 164.09492429 -82.7784866 160.49157832 -82.75683594 156.88821411 C-82.71719951 150.84081306 -82.6605814 144.79374498 -82.59423828 138.74658203 C-82.5178859 131.7642502 -82.47042388 124.7821617 -82.43794918 117.79949844 C-82.40926633 111.79149636 -82.36511425 105.78375243 -82.30806828 99.77595246 C-82.27405081 96.19323238 -82.24526774 92.61068353 -82.2303772 89.02782822 C-82.21274392 85.03486482 -82.16266215 81.04293965 -82.109375 77.05029297 C-82.10812119 75.86883698 -82.10686737 74.68738098 -82.10557556 73.47012329 C-81.99244198 67.20534046 -81.7418077 63.30585131 -77.5 58.5625 C-72.81431415 54.0985343 -68.60136025 54.13627139 -62.44140625 54.2109375 C-61.34699219 54.24445313 -60.25257813 54.27796875 -59.125 54.3125 C-58.00738281 54.33054687 -56.88976562 54.34859375 -55.73828125 54.3671875 C-52.9912997 54.41414445 -50.24609953 54.47980532 -47.5 54.5625 C-47.52618408 53.68625977 -47.55236816 52.81001953 -47.5793457 51.90722656 C-47.66552693 48.59699468 -47.72770257 45.28798623 -47.7746582 41.97705078 C-47.79951385 40.55530771 -47.83341201 39.13368839 -47.87719727 37.71240234 C-48.2032313 26.84204418 -46.94730861 17.21248773 -40.25 8.1875 C-29.26306287 -2.30003089 -14.2528801 -6.54617012 0 0 Z " fill="#162181" transform="translate(447.5,244.4375)"/>
<path d="M0 0 C4.62 0 9.24 0 14 0 C14 21.12 14 42.24 14 64 C8.39 64 2.78 64 -3 64 C-3.66 62.02 -4.32 60.04 -5 58 C-8.1439691 55.9040206 -8.86379549 55.74859339 -12.44527721 55.73828697 C-13.3604166 55.73082148 -14.275556 55.72335599 -15.21842688 55.71566427 C-16.22522586 55.717599 -17.23202484 55.71953374 -18.26933289 55.7215271 C-19.87188855 55.7128385 -19.87188855 55.7128385 -21.50681907 55.70397437 C-25.1044297 55.68690223 -28.70191261 55.68409165 -32.29956055 55.68115234 C-34.87140215 55.67185915 -37.44324073 55.6616914 -40.01507568 55.65071106 C-45.56115359 55.62841816 -51.10721299 55.61341711 -56.65332603 55.60334396 C-64.67210459 55.58876932 -72.69081866 55.56323596 -80.70955942 55.53501268 C-93.71887216 55.48952255 -106.72819418 55.45291694 -119.73754883 55.421875 C-132.37623727 55.39169854 -145.01490302 55.35735245 -157.65356445 55.31738281 C-158.43238213 55.31492126 -159.2111998 55.31245972 -160.01361801 55.30992357 C-163.92064893 55.29754915 -167.82767958 55.28509258 -171.7347101 55.27259517 C-204.15644263 55.16899412 -236.57820002 55.07980186 -269 55 C-269.17958252 53.91605957 -269.35916504 52.83211914 -269.54418945 51.71533203 C-269.79585086 50.27106538 -270.04807828 48.82689727 -270.30078125 47.3828125 C-270.47534851 46.3151062 -270.47534851 46.3151062 -270.65344238 45.22583008 C-272.15932275 36.77253065 -276.12161531 30.0208533 -282.8125 24.5625 C-288.36392849 20.81826168 -294.54129843 18.61467539 -301 17 C-301 14.03 -301 11.06 -301 8 C-300.06970528 7.99910437 -300.06970528 7.99910437 -299.12061673 7.99819064 C-262.37826989 7.96231156 -225.63600953 7.90569552 -188.89373918 7.82207905 C-184.48392867 7.81206136 -180.07411778 7.80221727 -175.66430664 7.79248047 C-174.78637745 7.7905391 -173.90844826 7.78859772 -173.00391515 7.78659752 C-158.78093856 7.75556028 -144.55797811 7.73859206 -130.33497403 7.72680578 C-115.74531365 7.71440314 -101.15573812 7.68692184 -86.56613129 7.64538693 C-77.5605601 7.62022607 -68.55512957 7.6068846 -59.54952272 7.60857043 C-53.3774781 7.60860014 -47.20557698 7.59400865 -41.03358827 7.56783572 C-37.4704353 7.55316021 -33.90757662 7.54501183 -30.3443985 7.55419731 C-26.48362435 7.56398176 -22.62336937 7.54301858 -18.76264954 7.51898193 C-17.06858765 7.53062256 -17.06858765 7.53062256 -15.34030229 7.54249835 C-9.32201616 7.5034344 -9.32201616 7.5034344 -3.8898344 5.15506363 C-1.8687861 2.94567618 -1.8687861 2.94567618 0 0 Z " fill="#FCFCFD" transform="translate(351,359)"/>
<path d="M0 0 C11.22 0 22.44 0 34 0 C34.061875 4.08375 34.12375 8.1675 34.1875 12.375 C34.22846802 14.30545166 34.22846802 14.30545166 34.27026367 16.27490234 C34.27775635 17.28504395 34.28524902 18.29518555 34.29296875 19.3359375 C34.3086792 20.37282715 34.32438965 21.4097168 34.34057617 22.47802734 C34.22818604 23.31027832 34.1157959 24.1425293 34 25 C33.01 25.66 32.02 26.32 31 27 C30.63583953 29.43693311 30.63583953 29.43693311 30.8125 32.125 C30.83957031 33.03507812 30.86664063 33.94515625 30.89453125 34.8828125 C30.92933594 35.58148438 30.96414063 36.28015625 31 37 C34.69468315 38.23156105 38.15097846 38.22260483 42 38.25 C42.72445312 38.270625 43.44890625 38.29125 44.1953125 38.3125 C48.31880679 38.36617348 48.31880679 38.36617348 51.96875 36.6640625 C53.65432501 33.94415737 53.49955718 32.12223239 53 29 C52.17113281 28.35417969 51.34226562 27.70835937 50.48828125 27.04296875 C46.69164127 22.39998203 47.45716816 17.98831875 47.6875 12.1875 C47.71005859 11.11306641 47.73261719 10.03863281 47.75585938 8.93164062 C47.81462559 6.28716112 47.90430167 3.64340067 48 1 C54.93 1 61.86 1 69 1 C69 40.6 69 80.2 69 121 C34.68 121 0.36 121 -35 121 C-35 81.4 -35 41.8 -35 1 C-29.06 1 -23.12 1 -17 1 C-16.94618203 4.93768134 -16.9064132 8.87463132 -16.875 12.8125 C-16.85824219 13.93205078 -16.84148437 15.05160156 -16.82421875 16.20507812 C-16.81777344 17.27822266 -16.81132812 18.35136719 -16.8046875 19.45703125 C-16.79421387 20.44678955 -16.78374023 21.43654785 -16.77294922 22.45629883 C-17 25 -17 25 -19 28 C-18.77008922 32.59070348 -18.77008922 32.59070348 -16.8828125 36.69140625 C-14.00801119 38.68945281 -11.51855247 38.4338735 -8.0625 38.4375 C-6.83660156 38.45683594 -5.61070312 38.47617187 -4.34765625 38.49609375 C-0.94819237 38.26773931 -0.94819237 38.26773931 1.4140625 36.16015625 C3.55940083 33.23805749 3.51770152 31.54995329 3 28 C2.50201904 27.39446289 2.00403809 26.78892578 1.4909668 26.16503906 C-0.42207005 23.38711033 -0.34639102 21.70717051 -0.29296875 18.359375 C-0.28547607 17.39483398 -0.2779834 16.43029297 -0.27026367 15.43652344 C-0.24295166 14.2199707 -0.21563965 13.00341797 -0.1875 11.75 C-0.0946875 5.93375 -0.0946875 5.93375 0 0 Z " fill="#33CA9F" transform="translate(417,314)"/>
<path d="M0 0 C12.34194168 9.12937696 20.90098502 20.05199882 24.9921875 35.02734375 C25.55013255 39.04224734 25.55544293 43.01760136 25.55859375 47.06640625 C25.57083984 47.88302734 25.58308594 48.69964844 25.59570312 49.54101562 C25.6282915 63.17381929 20.41990696 75.63938699 11.37109375 85.75390625 C10.77941406 86.42679687 10.18773437 87.0996875 9.578125 87.79296875 C6.03644687 91.59264992 3.43271003 93.29166155 -1.62890625 94.75390625 C-2.52416016 95.70136719 -2.52416016 95.70136719 -3.4375 96.66796875 C-6.02375168 99.12974843 -8.11131191 99.88391819 -11.50390625 100.94140625 C-12.51195312 101.26496094 -13.52 101.58851563 -14.55859375 101.921875 C-28.80934297 105.78371925 -44.04925689 104.77740103 -57.25390625 98.12890625 C-72.3445632 89.32239895 -80.3055285 77.10641412 -85.94140625 61.00390625 C-88.25890189 50.2632053 -87.35406445 37.03979082 -83.62890625 26.75390625 C-82.33649397 25.3808709 -81.00739728 24.04049788 -79.62890625 22.75390625 C-79.40203125 21.72265625 -79.17515625 20.69140625 -78.94140625 19.62890625 C-76.8024307 10.88537464 -66.90140913 3.41973461 -59.62890625 -1.24609375 C-41.06442833 -11.23213624 -18.00658804 -11.79741975 0 0 Z " fill="#FCC209" transform="translate(460.62890625,34.24609375)"/>
<path d="M0 0 C1.30904297 0.65162109 1.30904297 0.65162109 2.64453125 1.31640625 C15.74641026 8.380553 24.91581034 20.41914706 29.40454102 34.50366211 C30.49208001 39.06294307 30.53023782 43.58135764 30.5 48.25 C30.49500488 49.26344482 30.49000977 50.27688965 30.48486328 51.32104492 C30.2945371 59.52016552 28.95119643 65.72644477 25 73 C24.56558594 73.87398438 24.13117188 74.74796875 23.68359375 75.6484375 C16.38788055 89.15901751 4.29313699 98.04856171 -10.25 102.4375 C-25.54853687 106.0509581 -39.24344246 104.38880425 -53.1875 96.875 C-66.69005828 88.48488793 -75.29855425 76.47068481 -78.91967773 61.07495117 C-82.13721319 45.53927481 -79.32785662 31.44052809 -71 18 C-65.15052358 10.23148482 -58.5987391 4.51023781 -50 0 C-49.09507813 -0.50660156 -48.19015625 -1.01320312 -47.2578125 -1.53515625 C-33.10779394 -8.27236668 -13.64548591 -7.50999736 0 0 Z " fill="#FAC00A" transform="translate(164,239)"/>
<path d="M0 0 C1.76822239 -0.00384491 1.76822239 -0.00384491 3.57216644 -0.0077675 C6.82647837 -0.01184038 10.08042788 -0.00251902 13.33469701 0.01256669 C16.85060787 0.02556359 20.36650289 0.02113501 23.88243103 0.01885986 C29.96812915 0.01728943 36.05373051 0.02667451 42.1394043 0.04357338 C50.93817058 0.0679901 59.73689024 0.07577138 68.53568673 0.07953735 C82.81231049 0.08609765 97.08888272 0.10604736 111.36547852 0.13444519 C125.2310358 0.16199668 139.09657906 0.18322493 152.9621582 0.19596863 C154.24490712 0.19715088 154.24490712 0.19715088 155.55357015 0.19835702 C159.84383344 0.20227223 164.13409682 0.20606333 168.42436028 0.20979273 C203.9970549 0.2408755 239.56968968 0.2936998 275.14233398 0.36076355 C274.81233398 2.67076355 274.48233398 4.98076355 274.14233398 7.36076355 C273.81233398 13.30076355 273.48233398 19.24076355 273.14233398 25.36076355 C171.50233398 25.36076355 69.86233398 25.36076355 -34.85766602 25.36076355 C-33.62502633 16.73228578 -30.82846994 11.4273 -23.98266602 5.98576355 C-16.48269039 0.43383354 -8.99700594 -0.0719047 0 0 Z " fill="#D3E4FC" transform="translate(85.857666015625,60.63923645019531)"/>
<path d="M0 0 C2.22228206 0.46144116 4.44495346 0.92101047 6.66796875 1.37890625 C7.81700684 1.61625488 8.96604492 1.85360352 10.14990234 2.09814453 C16.02399162 3.28431328 21.91785176 4.35909988 27.8125 5.4375 C30.06901349 5.85675431 32.32552401 6.27602459 34.58203125 6.6953125 C38.22071719 7.368086 41.8607172 8.0150733 45.51171875 8.6171875 C57.76450724 10.70072156 57.76450724 10.70072156 61.6875 15.8125 C62.5 18.625 62.5 18.625 61.6875 21.8125 C59.64057787 24.7691653 57.21873864 27.2670675 54.6875 29.8125 C53.94628906 30.56789063 53.20507812 31.32328125 52.44140625 32.1015625 C50.53854657 34.02138172 48.62129192 35.92391361 46.6875 37.8125 C47.99129393 40.72301323 49.33482284 42.66147404 51.69140625 44.80078125 C52.26697266 45.34283203 52.84253906 45.88488281 53.43554688 46.44335938 C54.64146934 47.56101195 55.85502165 48.6704901 57.07617188 49.77148438 C60.13836389 52.68245703 61.55158962 54.34425401 62.7578125 58.5 C62.68137236 62.10118013 62.48603324 63.01396676 60 65.5 C59.04480469 66.48226562 59.04480469 66.48226562 58.0703125 67.484375 C57.28398437 68.25265625 56.49765625 69.0209375 55.6875 69.8125 C54.6621247 70.85747707 53.63882166 71.90449006 52.6171875 72.953125 C43.07279425 82.68181186 43.07279425 82.68181186 38.375 83.125 C31.64441214 82.5546112 28.48524357 77.57470645 24.3359375 72.71875 C22.54567559 70.64849452 20.66171482 68.70774622 18.6875 66.8125 C14.46194393 68.43771387 11.74067898 71.60817355 8.6875 74.8125 C1.38629518 82.4751506 1.38629518 82.4751506 -4.3125 83.1875 C-8.08162463 82.71635942 -8.9274411 81.69851892 -11.3125 78.8125 C-12.11500549 76.47175598 -12.11500549 76.47175598 -12.54516602 73.85473633 C-12.71536758 72.86883011 -12.88556915 71.88292389 -13.06092834 70.86714172 C-13.22773605 69.80368027 -13.39454376 68.74021881 -13.56640625 67.64453125 C-13.75339584 66.53631516 -13.94038544 65.42809906 -14.13304138 64.28630066 C-14.72883889 60.73486037 -15.30233639 57.18023642 -15.875 53.625 C-16.26347971 51.28165284 -16.6534385 48.93855036 -17.04492188 46.59570312 C-17.80109823 42.06347614 -18.54673006 37.52969926 -19.28564453 32.99462891 C-19.9084867 29.19816411 -20.55728014 25.40945071 -21.25732422 21.62646484 C-21.39927719 20.85638596 -21.54123016 20.08630707 -21.68748474 19.29289246 C-22.05613258 17.3173712 -22.43374489 15.34352826 -22.81225586 13.36987305 C-24.22387551 3.33145919 -24.22387551 3.33145919 -21.8125 -0.6875 C-15.51251231 -4.46749261 -6.73680293 -1.44610886 0 0 Z " fill="#182283" transform="translate(268.3125,263.1875)"/>
<path d="M0 0 C1.30904297 0.65162109 1.30904297 0.65162109 2.64453125 1.31640625 C15.74641026 8.380553 24.91581034 20.41914706 29.40454102 34.50366211 C30.49208001 39.06294307 30.53023782 43.58135764 30.5 48.25 C30.49500488 49.26344482 30.49000977 50.27688965 30.48486328 51.32104492 C30.2945371 59.52016552 28.95119643 65.72644477 25 73 C24.56558594 73.87398438 24.13117188 74.74796875 23.68359375 75.6484375 C16.38788055 89.15901751 4.29313699 98.04856171 -10.25 102.4375 C-25.54853687 106.0509581 -39.24344246 104.38880425 -53.1875 96.875 C-66.69005828 88.48488793 -75.29855425 76.47068481 -78.91967773 61.07495117 C-82.13721319 45.53927481 -79.32785662 31.44052809 -71 18 C-65.15052358 10.23148482 -58.5987391 4.51023781 -50 0 C-49.09507813 -0.50660156 -48.19015625 -1.01320312 -47.2578125 -1.53515625 C-33.10779394 -8.27236668 -13.64548591 -7.50999736 0 0 Z M-56.3125 23.4375 C-63.30041944 32.09013156 -65.95926469 41.97606927 -65 53 C-63.00057044 64.08927318 -56.8197661 74.02478955 -48 81 C-36.92740452 87.61394262 -25.2222165 88.8444433 -12.58203125 86.31640625 C-2.67984629 82.95050135 6.57552896 75.89045081 11.2890625 66.40625 C15.59326239 55.87799128 17.17536677 44.58447691 13.0625 33.6875 C7.86805644 22.81574912 -1.25316476 14.20382355 -12.625 10.125 C-29.80169531 5.66386763 -44.57354573 10.58334508 -56.3125 23.4375 Z " fill="#182281" transform="translate(164,239)"/>
<path d="M0 0 C3.8425303 0.72047443 5.45767292 1.57152696 8 4.5625 C8.42242213 7.36438855 8.23816991 9.7044611 8 12.5625 C9.051875 12.48 10.10375 12.3975 11.1875 12.3125 C15 12.5625 15 12.5625 17.9375 14.0625 C20.45058459 17.10866314 20.67052997 18.80455783 20.43359375 22.66015625 C19.77657726 25.54274213 18.33462725 26.84586232 16 28.5625 C13.65061112 29.73719444 12.04926795 29.76284889 9.4296875 29.87890625 C8.53378906 29.92080078 7.63789063 29.96269531 6.71484375 30.00585938 C5.30912109 30.06483398 5.30912109 30.06483398 3.875 30.125 C2.93011719 30.16818359 1.98523438 30.21136719 1.01171875 30.25585938 C-1.32537092 30.36209072 -3.6625683 30.46413176 -6 30.5625 C-6.042721 32.22861905 -6.04063832 33.89632885 -6 35.5625 C-4.38104682 37.18145318 -2.4240644 36.64270472 -0.1875 36.6875 C6.90151779 37.24422915 12.33721299 40.39948804 18 44.5625 C21.25764541 49.44896812 20.4374363 54.8476064 20 60.5625 C18.32790919 65.97220557 14.61925597 69.42363209 10 72.5625 C9.34 72.5625 8.68 72.5625 8 72.5625 C8.103125 73.614375 8.20625 74.66625 8.3125 75.75 C8 79.5625 8 79.5625 5.875 82.5 C3 84.5625 3 84.5625 0 85.1875 C-4.04381805 84.34503791 -5.53235541 82.82850019 -8 79.5625 C-8.3125 76.75 -8.3125 76.75 -8 74.5625 C-9.216875 74.665625 -10.43375 74.76875 -11.6875 74.875 C-15.14425282 74.85658036 -15.96385473 74.58659685 -19 72.5625 C-21.78352545 68.38721182 -21.78631447 66.51628117 -21 61.5625 C-18.79663409 58.96188153 -17.00530391 57.73510606 -13.62109375 57.15405273 C-10.80498517 56.94472674 -8.01097759 56.85421693 -5.1875 56.8125 C-4.20845703 56.78285156 -3.22941406 56.75320312 -2.22070312 56.72265625 C0.18627953 56.65220798 2.5923079 56.59938975 5 56.5625 C5 54.5825 5 52.6025 5 50.5625 C4.14277344 50.53671875 3.28554688 50.5109375 2.40234375 50.484375 C-6.04910168 50.06513757 -11.32187626 49.43944124 -17.3125 43.125 C-21.43208294 36.86933701 -21.81556808 30.90261269 -21 23.5625 C-19.03954782 19.57157948 -16.87019477 16.79079396 -13 14.5625 C-10.25 13.875 -10.25 13.875 -8 13.5625 C-8.103125 12.345625 -8.20625 11.12875 -8.3125 9.875 C-8.30621859 6.33856592 -8.04353719 5.62396428 -5.875 2.5625 C-3 0.5625 -3 0.5625 0 0 Z " fill="#19227E" transform="translate(430,38.4375)"/>
<path d="M0 0 C9.57 0 19.14 0 29 0 C28.40580573 5.34774846 27.84903878 10.25331287 26.765625 15.44921875 C26.52344238 16.61751221 26.28125977 17.78580566 26.03173828 18.98950195 C25.64477783 20.82001099 25.64477783 20.82001099 25.25 22.6875 C24.98558105 23.95231201 24.72116211 25.21712402 24.44873047 26.52026367 C22.09436419 37.7109005 19.5769104 48.85865211 17 60 C3.8 60 -9.4 60 -23 60 C-22.23125894 56.15629468 -21.39928184 53.17930072 -19.97460938 49.59887695 C-19.55747681 48.54461014 -19.14034424 47.49034332 -18.71057129 46.40412903 C-18.03399475 44.71328438 -18.03399475 44.71328438 -17.34375 42.98828125 C-16.88141968 41.82370895 -16.41908936 40.65913666 -15.94274902 39.45927429 C-14.96622836 37.00158536 -13.98819489 34.54457182 -13.00732422 32.08862305 C-11.74950426 28.93922713 -10.4961439 25.78808216 -9.24449921 22.63622761 C-7.17556108 17.42683648 -5.10370907 12.21859529 -3.02539062 7.01293945 C-2.6575647 6.09092239 -2.28973877 5.16890533 -1.9107666 4.21894836 C-1 2 -1 2 0 0 Z " fill="#EF857E" transform="translate(174,102)"/>
<path d="M0 0 C5.9014694 3.0474801 9.91897025 6.8475126 12.5078125 13.04296875 C14.11265954 24.56696667 10.6842635 34.30388617 6.8828125 44.98046875 C6.35359626 46.52344758 5.82624424 48.06706709 5.30078125 49.61132812 C-2.65807305 72.80010777 -2.65807305 72.80010777 -7.4921875 82.04296875 C-11.10202955 73.67429714 -14.32390978 65.20014377 -17.34936523 56.60717773 C-18.05325619 54.60953081 -18.76355706 52.61424818 -19.47460938 50.61914062 C-30.28368051 20.16390942 -30.28368051 20.16390942 -26.45703125 10.40234375 C-20.8340647 0.94197664 -10.65142857 -4.09028213 0 0 Z " fill="#F0857E" transform="translate(53.4921875,391.95703125)"/>
<path d="M0 0 C9.24 0 18.48 0 28 0 C32.49995185 8.9999037 32.49995185 8.9999037 33.98291016 12.77612305 C34.31650543 13.62027267 34.65010071 14.4644223 34.99380493 15.33415222 C35.33873993 16.21774918 35.68367493 17.10134613 36.0390625 18.01171875 C36.40599213 18.94297073 36.77292175 19.87422272 37.15097046 20.83369446 C38.31242038 23.78362383 39.46881197 26.73550488 40.625 29.6875 C41.40851459 31.68047208 42.19236565 33.67331191 42.9765625 35.66601562 C44.71813116 40.09255877 46.45893339 44.51939208 48.18878174 48.95053101 C48.84737238 50.61440022 49.53701939 52.26595266 50.23583984 53.91333008 C51 56 51 56 51 59 C38.13 59 25.26 59 12 59 C10.72121385 55.16364154 9.6531615 51.77865267 8.85498047 47.88427734 C8.65492401 46.91662445 8.45486755 45.94897156 8.24874878 44.95199585 C8.04033356 43.92369659 7.83191833 42.89539734 7.6171875 41.8359375 C7.39805695 40.76630768 7.17892639 39.69667786 6.95315552 38.59463501 C6.49248628 36.34080854 6.03369303 34.08659792 5.57666016 31.83203125 C4.87581549 28.37901787 4.16681809 24.9277475 3.45703125 21.4765625 C3.00992581 19.2839542 2.5632949 17.09124908 2.1171875 14.8984375 C1.90472382 13.86608978 1.69226013 12.83374207 1.47335815 11.77011108 C1.27960602 10.80876251 1.08585388 9.84741394 0.88623047 8.85693359 C0.71461395 8.01343353 0.54299744 7.16993347 0.36618042 6.3008728 C0 4 0 4 0 0 Z " fill="#EF857E" transform="translate(310,102)"/>
<path d="M0 0 C9.24 0 18.48 0 28 0 C28 19.47 28 38.94 28 59 C14.8 59 1.6 59 -12 59 C-9.74707502 43.22952512 -9.74707502 43.22952512 -8.6328125 37.8515625 C-8.26663818 36.07688599 -8.26663818 36.07688599 -7.89306641 34.26635742 C-7.63960449 33.06470947 -7.38614258 31.86306152 -7.125 30.625 C-6.86251465 29.36727783 -6.6000293 28.10955566 -6.32958984 26.8137207 C-4.43162922 17.8120475 -2.33663391 8.89718298 0 0 Z " fill="#EE857E" transform="translate(220,102)"/>
<path d="M0 0 C9.24 0 18.48 0 28 0 C36.0388374 35.99916262 36.0388374 35.99916262 38.5 47.5 C38.73928223 48.5979187 38.73928223 48.5979187 38.98339844 49.71801758 C39.66206607 52.92914992 40 55.69125638 40 59 C26.8 59 13.6 59 0 59 C0 39.53 0 20.06 0 0 Z " fill="#EE857E" transform="translate(265,102)"/>
<path d="M0 0 C1.0310067 -0.00701996 1.0310067 -0.00701996 2.08284181 -0.01418173 C4.38529391 -0.026145 6.68715227 -0.01666975 8.98960876 -0.00723267 C10.64048612 -0.01129775 12.29136075 -0.01663928 13.94223022 -0.02316284 C18.42559064 -0.03684871 22.90874413 -0.03153285 27.3921082 -0.02202559 C32.0805742 -0.01443685 36.76902233 -0.02147229 41.45748901 -0.02618408 C49.33020717 -0.03164339 57.20284092 -0.02444487 65.07554626 -0.01016235 C74.18354777 0.00617016 83.29134787 0.000872 92.3993445 -0.01564157 C100.21428691 -0.0292447 108.0291686 -0.03118202 115.84411901 -0.02332556 C120.51391143 -0.01864331 125.1836091 -0.01803943 129.85339546 -0.02793503 C134.24224236 -0.03658558 138.6308289 -0.03061795 143.0196476 -0.01325226 C144.63255633 -0.0092774 146.24548688 -0.01043848 147.85838699 -0.01704025 C150.05571051 -0.02520661 152.25219333 -0.01499489 154.44946289 0 C155.68039201 0.00113108 156.91132113 0.00226215 158.17955112 0.00342751 C161.16123962 0.38095093 161.16123962 0.38095093 163.09244442 1.67819786 C164.16123962 3.38095093 164.16123962 3.38095093 163.97373962 7.00595093 C163.70561462 8.11970093 163.43748962 9.23345093 163.16123962 10.38095093 C160.25859944 11.83227102 157.73089948 11.51366036 154.48706055 11.52139282 C153.44636647 11.52584951 153.44636647 11.52584951 152.38464826 11.53039622 C150.04852929 11.53910163 147.71246145 11.54059301 145.37632751 11.54208374 C143.70604339 11.54671055 142.03576033 11.55173502 140.36547852 11.55712891 C135.82008634 11.57026661 131.27470894 11.57670032 126.72930074 11.58113956 C123.89198497 11.58406758 121.05467327 11.58817183 118.21735954 11.59264374 C109.34708202 11.60632117 100.47681377 11.61598709 91.60652643 11.61984563 C81.35367653 11.62432965 71.10095973 11.64189243 60.84815031 11.67084622 C52.93135301 11.69243027 45.01459325 11.70254812 37.09776682 11.70388675 C32.36532795 11.70493697 27.63301415 11.71089088 22.90060616 11.72870636 C18.45107773 11.74513092 14.00176915 11.74737006 9.5522213 11.73856735 C7.91672809 11.737794 6.28122333 11.74217873 4.64575958 11.7520256 C2.4177086 11.76465653 0.1904468 11.75891755 -2.03759766 11.7484436 C-3.2858731 11.74991016 -4.53414854 11.75137672 -5.82025051 11.75288773 C-8.83876038 11.38095093 -8.83876038 11.38095093 -10.7677393 10.01423264 C-11.83876038 8.38095093 -11.83876038 8.38095093 -11.77626038 5.88095093 C-9.64270191 0.19146168 -5.57100632 0.00511752 0 0 Z " fill="#29A9F3" transform="translate(179.83876037597656,474.6190490722656)"/>
<path d="M0 0 C1.084021 0.00523682 2.16804199 0.01047363 3.28491211 0.01586914 C4.45473633 0.0190918 5.62456055 0.02231445 6.82983398 0.02563477 C8.0615332 0.03401367 9.29323242 0.04239258 10.56225586 0.05102539 C12.41560547 0.05779297 12.41560547 0.05779297 14.30639648 0.06469727 C17.37089703 0.07652931 20.43530307 0.09301366 23.49975586 0.11352539 C20.97245088 8.08492224 17.88400607 15.80428699 14.74975586 23.55102539 C13.67409934 26.21971858 12.60035463 28.88917811 11.52709961 31.55883789 C11.13363594 32.53676048 11.13363594 32.53676048 10.73222351 33.53443909 C8.24931154 39.71552322 5.83417649 45.92196658 3.4675293 52.1484375 C1.60444694 57.00883431 1.60444694 57.00883431 0.49975586 58.11352539 C-2.31187794 58.20214531 -5.09882669 58.22874894 -7.91040039 58.21118164 C-8.75243515 58.20976669 -9.59446991 58.20835175 -10.46202087 58.20689392 C-13.16229749 58.20127802 -15.86249242 58.18872287 -18.56274414 58.17602539 C-20.38891482 58.17101244 -22.2150868 58.16644918 -24.04125977 58.16235352 C-28.52761956 58.15130343 -33.01391798 58.13402818 -37.50024414 58.11352539 C-33.35091189 50.35934771 -28.9812762 42.76773893 -24.43774414 35.23852539 C-23.79305176 34.16731445 -23.14835937 33.09610352 -22.48413086 31.99243164 C-18.07063091 24.67511438 -13.61697088 17.38307215 -9.12524414 10.11352539 C-8.57215576 9.21778809 -8.01906738 8.32205078 -7.44921875 7.39916992 C-6.94269775 6.58303223 -6.43617676 5.76689453 -5.91430664 4.92602539 C-5.47038574 4.2105957 -5.02646484 3.49516602 -4.5690918 2.75805664 C-2.86094827 0.12990342 -2.86094827 0.12990342 0 0 Z " fill="#EE857E" transform="translate(133.500244140625,101.886474609375)"/>
<path d="M0 0 C1.16982422 0.02707031 2.33964844 0.05414063 3.54492188 0.08203125 C6.42766135 0.15262895 9.30663571 0.25119426 12.1875 0.375 C6.8696144 9.74927244 1.46205996 19.06618649 -4.03930664 28.33398438 C-5.64942996 31.04836852 -7.25308292 33.76656432 -8.85694885 36.48464966 C-9.65481579 37.8227999 -10.46218402 39.15533279 -11.27915955 40.48190308 C-13.28964647 43.74766169 -15.13620301 46.98602918 -16.76196289 50.46142578 C-21.2121399 59.43924796 -21.2121399 59.43924796 -25.73757935 61.06774902 C-31.28066921 62.09657564 -36.7881298 61.65439544 -42.375 61.25 C-44.0681011 61.17967692 -45.76148361 61.1158153 -47.45507812 61.05859375 C-51.58123277 60.90519743 -55.69374146 60.66440393 -59.8125 60.375 C-55.61461867 53.9971389 -55.61461867 53.9971389 -53.25390625 51.10546875 C-52.56180054 50.25094116 -52.56180054 50.25094116 -51.85571289 49.37915039 C-51.36707764 48.77965576 -50.87844238 48.18016113 -50.375 47.5625 C-45.95000801 42.08748674 -41.62731201 36.54753612 -37.375 30.9375 C-31.48881378 23.18582912 -25.48902581 15.51250213 -19.18432617 8.09472656 C-17.7836445 6.42421206 -17.7836445 6.42421206 -16.77856445 4.60058594 C-12.87083868 -1.63196612 -6.48704674 -0.28346759 0 0 Z " fill="#EE857E" transform="translate(98.8125,101.625)"/>
<path d="M0 0 C2.4375 1.625 2.4375 1.625 4 4 C4.25 7.25 4.25 7.25 4 10 C5.051875 9.9175 6.10375 9.835 7.1875 9.75 C11 10 11 10 13.875 11.5625 C16.67784977 14.77753356 17.15165275 16.75372309 17 21 C14.18799986 24.12070276 11.88093218 25.23939073 7.79296875 25.609375 C6.2585096 25.67523162 4.72311065 25.72168195 3.1875 25.75 C2.00510742 25.79447266 2.00510742 25.79447266 0.79882812 25.83984375 C-1.13357446 25.91011293 -3.06679015 25.95737134 -5 26 C-5.33 26.99 -5.66 27.98 -6 29 C-5.07380859 29.07734375 -5.07380859 29.07734375 -4.12890625 29.15625 C3.45077287 30.1714886 7.98665427 33.27354906 13 39 C15.36318151 42.87111637 15.54129279 46.55796238 15 51 C13.14780662 56.24788123 10.39709304 58.81912419 6 62 C5.34 62 4.68 62 4 62 C3.896875 63.11375 3.79375 64.2275 3.6875 65.375 C3.460625 66.57125 3.23375 67.7675 3 69 C-0.80381344 71.53587563 -3.53986175 71.59592661 -8 71 C-10.65351279 69.37365345 -10.91506162 68.33203185 -11.6875 65.3125 C-11.8421875 64.1678125 -11.8421875 64.1678125 -12 63 C-13.36125 63.1546875 -13.36125 63.1546875 -14.75 63.3125 C-18 63 -18 63 -20.375 60.9375 C-22.40553614 57.26691544 -22.60190112 55.13807018 -22 51 C-20.32492423 48.58877251 -18.95864295 47.25147328 -16.078125 46.49584961 C-13.80243146 46.1588133 -11.54316267 45.93254031 -9.25 45.75 C-8.45722656 45.67265625 -7.66445312 45.5953125 -6.84765625 45.515625 C-4.89990109 45.32788956 -2.95008114 45.16179712 -1 45 C-1.71285156 44.92523438 -2.42570312 44.85046875 -3.16015625 44.7734375 C-9.93284272 43.84367435 -14.57535283 42.39213562 -19 37 C-21.73009495 32.55095637 -21.6585389 28.07556813 -21 23 C-19.28589253 19.69422131 -17.73663496 17.60664055 -14.875 15.25 C-12.31121878 12.17346253 -12.15830034 9.25337158 -11.6875 5.33984375 C-10.00860544 -0.37412127 -5.27157847 -0.65894731 0 0 Z " fill="#18217F" transform="translate(143,251)"/>
<path d="M0 0 C4.95979287 2.85749384 8.8723289 6.99198669 10.6875 12.4375 C11.31428038 20.79055397 10.9476803 26.41021845 5.5625 33.0625 C0.92268616 36.89538969 -3.81087959 39.02814393 -9.75 40 C-16.3654362 38.95545744 -22.34392899 36.31578825 -26.375 30.8125 C-29.96960537 24.55092935 -30.20164676 18.53389771 -29.3125 11.4375 C-26.94241118 6.363283 -22.92311209 2.55277844 -18.3125 -0.5625 C-12.42614627 -2.52461791 -5.71014423 -2.579486 0 0 Z " fill="#172182" transform="translate(265.3125,372.5625)"/>
<path d="M0 0 C14.85 0 29.7 0 45 0 C45 20.52475248 45 20.52475248 39.421875 26.765625 C33.59742602 32.17029387 27.43802642 34.63327031 19.48828125 34.34375 C12.8270437 33.42351624 8.52054424 30.05062942 4.32421875 24.9765625 C-1.91327071 15.66632749 0 13.38388694 0 0 Z " fill="#FCFCFD" transform="translate(385,176)"/>
<path d="M0 0 C5.25461215 2.79115957 8.86613699 6.78200244 11.06640625 12.27734375 C11.29345703 15.39355469 11.29345703 15.39355469 11.26171875 19.01171875 C11.25672363 20.17928711 11.25172852 21.34685547 11.24658203 22.54980469 C11.22837402 24.02739258 11.21016602 25.50498047 11.19140625 27.02734375 C11.15015625 31.72984375 11.10890625 36.43234375 11.06640625 41.27734375 C-0.15359375 41.27734375 -11.37359375 41.27734375 -22.93359375 41.27734375 C-23.01609375 36.45109375 -23.09859375 31.62484375 -23.18359375 26.65234375 C-23.22000977 25.14075684 -23.25642578 23.62916992 -23.29394531 22.07177734 C-23.30393555 20.86859863 -23.31392578 19.66541992 -23.32421875 18.42578125 C-23.34516602 17.20036621 -23.36611328 15.97495117 -23.38769531 14.71240234 C-22.70084259 9.51669382 -20.26205681 6.47296051 -16.43359375 3.02734375 C-11.22775903 -0.61674056 -6.25729814 -2.33858617 0 0 Z " fill="#D3E4FD" transform="translate(439.93359375,257.72265625)"/>
<path d="M0 0 C14.85 0 29.7 0 45 0 C45 19.50638298 45 19.50638298 39.1640625 26.0625 C33.28140532 31.47183994 27.81069679 34.76348904 19.65625 34.46875 C12.64138581 33.23083279 7.45906745 29.17711178 3.4375 23.4375 C-1.26053303 15.97122089 0 9.02085022 0 0 Z " fill="#F9F9FC" transform="translate(446,176)"/>
<path d="M0 0 C14.85 0 29.7 0 45 0 C45 19.50638298 45 19.50638298 39.1640625 26.0625 C33.21972008 31.52856199 27.80992366 34.70291454 19.58984375 34.40625 C13.21554481 33.40635997 8.55197521 30.09010959 4.5625 25.125 C-1.05264049 16.72562088 0 10.7171181 0 0 Z " fill="#F9F9FC" transform="translate(146,176)"/>
<path d="M0 0 C14.52 0 29.04 0 44 0 C44 20.55580866 44 20.55580866 37.28515625 27.8671875 C31.80462737 32.88001261 26.9621089 34.50251181 19.5546875 34.3046875 C12.33306671 33.44339328 8.03245349 29.46354443 3.4453125 24.09765625 C-2.06255205 16.10380959 0 10.87905645 0 0 Z " fill="#FBFBFD" transform="translate(325,176)"/>
<path d="M0 0 C14.52 0 29.04 0 44 0 C44 20.55580866 44 20.55580866 37.28515625 27.8671875 C33.14052927 31.65811546 29.46938734 33.7579032 23.8125 34.3125 C15.89501591 33.66352589 10.07070856 31.88623487 4.47265625 26.109375 C-1.84156919 17.06512635 0 11.96017571 0 0 Z " fill="#FBFBFD" transform="translate(27,176)"/>
<path d="M0 0 C13.86 0 27.72 0 42 0 C42 21.28571429 42 21.28571429 37 27 C34.5625 29.375 34.5625 29.375 32 31 C31.13375 31.5775 30.2675 32.155 29.375 32.75 C23.75800072 34.8303701 18.22111851 35.0871275 12.5 33.15625 C6.9562542 30.3843771 2.9131318 26.49333425 0 21 C-1 16 -1 16 0 0 Z " fill="#FBFBFD" transform="translate(266,176)"/>
<path d="M0 0 C14.19 0 28.38 0 43 0 C43 20.6743215 43 20.6743215 37.12890625 27.0234375 C31.56563383 32.17656318 26.97512413 34.52431829 19.3359375 34.30859375 C12.82556519 33.44852784 8.46077429 29.96934034 4.32421875 25.07421875 C-1.50671195 15.94081402 0 11.9502496 0 0 Z " fill="#FCFCFD" transform="translate(87,176)"/>
<path d="M0 0 C13.53 0 27.06 0 41 0 C41.0825 3.34125 41.165 6.6825 41.25 10.125 C41.28641602 11.16672363 41.32283203 12.20844727 41.36035156 13.28173828 C41.44067512 20.01725714 40.20433799 23.62356201 35.47265625 28.609375 C29.92367541 33.09774731 25.63892847 34.54332891 18.55859375 34.375 C11.89214653 33.39793293 7.41515455 28.80454058 3.2265625 23.84375 C-2.05391769 15.90621289 0 10.70002136 0 0 Z " fill="#FBFBFD" transform="translate(207,176)"/>
<path d="M0 0 C14.79756881 1.53949862 29.37759591 4.3029925 44 7 C44 7.66 44 8.32 44 9 C42.3203125 10.62109375 42.3203125 10.62109375 40.125 12.4375 C36.78759691 15.20670723 34.3616182 17.27226862 33.4375 21.6875 C34.3032335 26.78570842 37.43418754 29.41480813 41 33 C41.8146875 33.82886719 42.629375 34.65773438 43.46875 35.51171875 C45.63058089 37.69065274 47.80737234 39.85211984 50 42 C48.02 44.475 48.02 44.475 46 47 C43.08948677 45.69620607 41.15102596 44.35267716 39.01171875 41.99609375 C38.46966797 41.42052734 37.92761719 40.84496094 37.36914062 40.25195312 C36.25148805 39.04603066 35.1420099 37.83247835 34.04101562 36.61132812 C31.19160761 33.61389891 29.41985427 32.13645264 25.40625 30.83203125 C21.07037279 31.04584171 19.83046921 32.19844448 16.8125 35.25 C13.96981881 38.06134455 11.22586107 40.64017326 8 43 C6.85828595 37.19805817 5.71901491 31.39564412 4.58203125 25.59277344 C4.19468663 23.6177058 3.80666811 21.64277021 3.41796875 19.66796875 C2.86021635 16.83367592 2.30486859 13.99892111 1.75 11.1640625 C1.57500977 10.27756012 1.40001953 9.39105774 1.21972656 8.47769165 C1.05956055 7.65699188 0.89939453 6.83629211 0.734375 5.99072266 C0.59225586 5.26680328 0.45013672 4.54288391 0.30371094 3.79702759 C0 2 0 2 0 0 Z " fill="#FCFCFD" transform="translate(260,279)"/>
<path d="M0 0 C1.65 0 3.3 0 5 0 C5.20753906 0.51046875 5.41507812 1.0209375 5.62890625 1.546875 C14.92277374 23.47884682 28.45839472 37.22907211 50 47 C50.62318115 47.24838623 51.2463623 47.49677246 51.88842773 47.75268555 C56.63527166 49.65228741 58.57705913 51.44487116 61 56 C61 56.66 61 57.32 61 58 C48.46 58 35.92 58 23 58 C18.75391665 47.80939997 14.56261871 37.60049412 10.41455078 27.37011719 C9.6321811 25.44191216 8.84863453 23.51418427 8.06396484 21.58691406 C6.92027375 18.77773172 5.7800563 15.9671624 4.640625 13.15625 C4.28961731 12.29584106 3.93860962 11.43543213 3.57696533 10.5489502 C3.25282654 9.74711304 2.92868774 8.94527588 2.59472656 8.11914062 C2.31002502 7.41809204 2.02532349 6.71704346 1.73199463 5.99475098 C1.00559736 4.01525331 0.47180038 2.0536516 0 0 Z " fill="#EB837E" transform="translate(356,102)"/>
<path d="M0 0 C2.51229699 2.59373288 4.63449072 5.23032742 6.72265625 8.17578125 C7.42003906 9.14902344 8.11742187 10.12226563 8.8359375 11.125 C10.41015625 13.48828125 10.41015625 13.48828125 10.41015625 14.48828125 C5.98104219 14.51314887 1.551966 14.53122014 -2.87719727 14.54321289 C-4.38143625 14.5482168 -5.88567043 14.55502198 -7.38989258 14.5637207 C-9.56202384 14.57596009 -11.73409034 14.58154911 -13.90625 14.5859375 C-15.21021729 14.59117432 -16.51418457 14.59641113 -17.85766602 14.60180664 C-21.54650894 14.48959941 -24.97860977 14.25955611 -28.58984375 13.48828125 C-32.58984375 8.66776843 -32.58984375 8.66776843 -32.58984375 5.48828125 C-31.51347656 5.40191406 -30.43710937 5.31554687 -29.328125 5.2265625 C-20.47928109 4.40677305 -13.3633088 3.09898546 -5.32421875 -0.87890625 C-2.58984375 -1.51171875 -2.58984375 -1.51171875 0 0 Z " fill="#E9827E" transform="translate(463.58984375,147.51171875)"/>
<path d="M0 0 C2.64298924 1.11138251 3.49515124 2.27185435 4.8671875 4.78515625 C5.23046875 7.87890625 5.23046875 7.87890625 5.1796875 11.28515625 C5.17582031 12.40921875 5.17195313 13.53328125 5.16796875 14.69140625 C4.87836789 17.67015797 4.53304349 19.33372938 2.8671875 21.78515625 C-0.65105761 24.13065299 -1.99056944 24.36507028 -6.1328125 23.78515625 C-9.0078125 22.16015625 -9.0078125 22.16015625 -11.1328125 18.78515625 C-12.05775407 12.53434143 -12.3610584 6.89620389 -9.1328125 1.34765625 C-5.65512785 -0.46363784 -3.79422683 -0.52410526 0 0 Z " fill="#1A2484" transform="translate(255.1328125,228.21484375)"/>
<path d="M0 0 C4.65166825 2.89226175 4.65166825 2.89226175 5.62890625 6 C5.60699219 6.66 5.58507812 7.32 5.5625 8 C5.56443359 8.99 5.56443359 8.99 5.56640625 10 C4.7153363 13.00515733 3.51424774 14.15568023 1 16 C-2.53125 16.56640625 -2.53125 16.56640625 -6.5 16.5625 C-8.46453125 16.59537109 -8.46453125 16.59537109 -10.46875 16.62890625 C-14 16 -14 16 -16.43359375 13.65234375 C-18.37284626 10.3686718 -18.70338996 8.75141312 -18 5 C-14.10588481 -1.63441847 -6.89889919 -1.23804503 0 0 Z " fill="#182283" transform="translate(231,260)"/>
<path d="M0 0 C5.2177744 1.85717394 8.36339136 4.93401307 11.6875 9.3125 C13.10165674 13.10839441 13.10318033 14.39800327 11.4375 18.0625 C9.13775197 21.01931889 7.50388792 22.20102534 3.76953125 22.7109375 C-0.18662699 22.19949499 -1.14461014 20.99102849 -3.625 17.9375 C-4.30175781 17.12539062 -4.97851562 16.31328125 -5.67578125 15.4765625 C-8.34921553 11.94175918 -8.835762 9.76022702 -8.3125 5.3125 C-5.76481437 1.68397805 -4.45792116 0.4205586 0 0 Z " fill="#1A2484" transform="translate(231.3125,237.6875)"/>
<path d="M0 0 C3.7 1.4 3.7 1.4 5 4 C5.5905955 7.69122186 5.64212477 10.05194143 3.5078125 13.203125 C-2.21224016 19.80136002 -2.21224016 19.80136002 -6.8125 20.3125 C-10.8794044 19.91378388 -12.35296205 19.11416229 -15 16 C-15.51747314 12.73991923 -15.76993783 11.06753008 -15 8 C-12.75 5.1875 -12.75 5.1875 -10 3 C-9.360625 2.401875 -8.72125 1.80375 -8.0625 1.1875 C-5.21679874 -0.45093406 -3.23446867 -0.33692382 0 0 Z " fill="#192383" transform="translate(238,277)"/>
<path d="M0 0 C2.875 1.5625 2.875 1.5625 5 4 C5.89659846 7.81054346 5.55618571 9.9903843 3.66796875 13.41796875 C0.87769777 17.37977562 -1.0039644 19.63936642 -5.625 21.3125 C-9.80931748 20.9250632 -11.27961683 20.20045078 -14 17 C-15.1875 13.75 -15.1875 13.75 -15 10 C-11.54974774 3.70300496 -7.63075854 -0.91569102 0 0 Z " fill="#1A2484" transform="translate(276,239)"/>
<path d="M0 0 C6.57692308 0.57692308 6.57692308 0.57692308 8 2 C8.1875 4.9375 8.1875 4.9375 8 8 C6 10 6 10 3 10.25 C0 10 0 10 -2 8 C-2.25 5 -2.25 5 -2 2 C-1.34 1.34 -0.68 0.68 0 0 Z " fill="#28A3EE" transform="translate(253,386)"/>
</svg>
